<svg width="26" height="26" viewBox="0 0 26 26" fill="none" xmlns="http://www.w3.org/2000/svg">
<path d="M22.4859 5.84492L19.7818 3.14336C19.5911 2.95177 19.3644 2.79976 19.1147 2.69605C18.865 2.59235 18.5973 2.539 18.327 2.53906C17.776 2.53906 17.258 2.75488 16.8695 3.14336L13.9598 6.05312C13.7682 6.24388 13.6162 6.4706 13.5125 6.72027C13.4088 6.96995 13.3554 7.23765 13.3555 7.50801C13.3555 8.05898 13.5713 8.57695 13.9598 8.96543L16.0875 11.0932C15.5894 12.191 14.897 13.1896 14.0436 14.041C13.1923 14.8965 12.1937 15.5915 11.0957 16.0926L8.96797 13.9648C8.77722 13.7733 8.5505 13.6212 8.30082 13.5175C8.05115 13.4138 7.78344 13.3605 7.51309 13.3605C6.96211 13.3605 6.44414 13.5764 6.05567 13.9648L3.14336 16.8721C2.95154 17.0632 2.79939 17.2903 2.69568 17.5404C2.59198 17.7906 2.53875 18.0587 2.53906 18.3295C2.53906 18.8805 2.75488 19.3984 3.14336 19.7869L5.84239 22.4859C6.46192 23.108 7.31758 23.4609 8.1961 23.4609C8.38145 23.4609 8.55918 23.4457 8.73438 23.4152C12.157 22.8516 15.5518 21.0311 18.2914 18.2939C21.0285 15.5594 22.8465 12.1672 23.4178 8.73438C23.5904 7.68574 23.2426 6.60664 22.4859 5.84492Z" fill="#EBFF07"/>
</svg>
